HIERARCHY
ROOT Hips
{
	OFFSET -3.958830 18.904000 13.208200
	CHANNELS 6 Xposition Yposition Zposition Zrotation Yrotation Xrotation 
	JOINT LHipJoint
	{
		OFFSET 0.000000 0.000000 0.000000
		CHANNELS 3 Zrotation Yrotation Xrotation
		JOINT LeftUpLeg
		{
			OFFSET 1.800000 -1.400000 0.085000
			CHANNELS 3 Zrotation Yrotation Xrotation
			JOINT LeftLeg
			{
				OFFSET 2.215000 -6.000000 0.000000
				CHANNELS 3 Zrotation Yrotation Xrotation
				JOINT LeftFoot
				{
					OFFSET 2.500000 -6.900000 0.000000
					CHANNELS 3 Zrotation Yrotation Xrotation
					JOINT LeftToeBase
					{
						OFFSET 0.200000 -0.500000 1.950000
						CHANNELS 3 Zrotation Yrotation Xrotation
						End Site
						{
							OFFSET 0.000000 0.000000 0.000000
						}
					}
				}
			}
		}
	}
	JOINT RHipJoint
	{
		OFFSET 0.000000 0.000000 0.000000
		CHANNELS 3 Zrotation Yrotation Xrotation
		JOINT RightUpLeg
		{
			OFFSET -1.800000 -1.400000 0.085000
			CHANNELS 3 Zrotation Yrotation Xrotation
			JOINT RightLeg
			{
				OFFSET -2.215000 -6.000000 0.000000
				CHANNELS 3 Zrotation Yrotation Xrotation
				JOINT RightFoot
				{
					OFFSET -2.500000 -6.900000 0.000000
					CHANNELS 3 Zrotation Yrotation Xrotation
					JOINT RightToeBase
					{
						OFFSET -0.200000 -0.500000 1.950000
						CHANNELS 3 Zrotation Yrotation Xrotation
						End Site
						{
							OFFSET 0.000000 0.000000 0.000000
						}
					}
				}
			}
		}
	}
	JOINT LowerBack
	{
		OFFSET 0.000000 0.000000 0.000000
		CHANNELS 3 Zrotation Yrotation Xrotation
		JOINT Spine
		{
			OFFSET -0.087000 1.940000 -0.288900
			CHANNELS 3 Zrotation Yrotation Xrotation
			JOINT Spine1
			{
				OFFSET 0.000000 1.950000 0.060000
				CHANNELS 3 Zrotation Yrotation Xrotation
				JOINT Neck
				{
					OFFSET 0.000000 0.000000 0.000000
					CHANNELS 3 Zrotation Yrotation Xrotation
					JOINT Neck1
					{
						OFFSET 0.000000 1.600000 0.340000
						CHANNELS 3 Zrotation Yrotation Xrotation
						JOINT Head
						{
							OFFSET 0.000000 1.667000 -0.240000
							CHANNELS 3 Zrotation Yrotation Xrotation
							End Site
							{
								OFFSET 0.000000 0.000000 0.000000
							}
						}
					}
				}
				JOINT LeftShoulder
				{
					OFFSET 0.000000 0.000000 0.000000
					CHANNELS 3 Zrotation Yrotation Xrotation
					JOINT LeftArm
					{
						OFFSET 2.700000 1.550000 -0.730000
						CHANNELS 3 Zrotation Yrotation Xrotation
						JOINT LeftForeArm
						{
							OFFSET 5.450000 0.000000 0.000000
							CHANNELS 3 Zrotation Yrotation Xrotation
							JOINT LeftHand
							{
								OFFSET 3.450000 0.000000 0.000000
								CHANNELS 3 Zrotation Yrotation Xrotation
								JOINT LeftHandIndex1
								{
									OFFSET 0.750000 0.000000 0.000000
									CHANNELS 3 Zrotation Yrotation Xrotation
									End Site
									{
										OFFSET 0.000000 0.000000 0.000000
									}
								}
							}
						}
					}
				}
				JOINT RightShoulder
				{
					OFFSET 0.000000 0.000000 0.000000
					CHANNELS 3 Zrotation Yrotation Xrotation
					JOINT RightArm
					{
						OFFSET -2.700000 1.550000 -0.730000
						CHANNELS 3 Zrotation Yrotation Xrotation
						JOINT RightForeArm
						{
							OFFSET -5.450000 0.000000 0.000000
							CHANNELS 3 Zrotation Yrotation Xrotation
							JOINT RightHand
							{
								OFFSET -3.450000 0.000000 0.000000
								CHANNELS 3 Zrotation Yrotation Xrotation
								JOINT RightHandIndex1
								{
									OFFSET -0.750000 0.000000 0.000000
									CHANNELS 3 Zrotation Yrotation Xrotation
									End Site
									{
										OFFSET 0.000000 0.000000 0.000000
									}
								}
							}
						}
					}
				}
			}
		}
	}
}
MOTION
Frames: 4
Frame Time: 0.016667
0.308770 16.891350 -4.142910 4.043577 16.238903 7.184168 -15.330599 10.695937 4.767689 13.116722 -9.765839 -41.451625 -11.747694 13.426925 42.994419 -0.428420 9.308023 1.282938 0.524100 -0.189080 0.603700 18.624926 -7.920036 4.850570 -25.735481 6.003304 -46.022103 25.428439 -22.097502 46.742725 -1.469691 -9.868454 1.081948 0.060300 0.301890 0.208340 -3.869429 -2.233690 -9.721507 12.466466 -5.035176 37.846244 -6.900961 0.613923 -0.027329 1.450929 -5.140162 -7.360757 -15.039675 -1.344209 43.480198 -2.191890 -7.328010 -15.422910 -27.582715 -6.256140 -0.093200 -27.502633 7.343201 -10.528167 -70.290306 -38.466028 18.453583 -3.591258 2.955898 1.098050 0.042110 -0.053280 0.125760 23.975247 9.829625 5.367638 45.010848 -8.733799 -17.541346 40.995592 37.541476 7.206210 1.731935 -1.302586 -0.533270 0.497100 0.101930 -0.477010 
0.307510 16.879160 -4.129710 3.635181 17.065779 7.190436 -15.257883 10.345770 4.865942 16.556592 -8.871649 -41.122061 -16.296533 15.150607 40.663095 -0.381640 9.704387 1.131895 0.555730 -0.153800 0.633770 18.727727 -7.907430 4.879274 -27.455466 5.665365 -45.042744 29.544121 -22.941311 43.530328 -1.504356 -9.840297 1.081667 0.091490 0.293330 0.219190 -4.105817 -1.675725 -9.815854 14.287656 -5.361802 36.849076 -8.944967 0.957917 0.490822 1.788013 -3.945340 -6.883380 -12.571100 -2.388266 44.199063 -2.560910 -7.166790 -15.431130 -28.360224 -6.500685 -0.426988 -24.852909 6.820712 -9.829419 -69.592795 -37.874894 18.136170 -3.586275 2.963217 1.099300 0.053730 -0.045460 0.128020 23.866016 8.903069 4.993546 45.880294 -8.385475 -17.198797 40.739647 35.378065 6.358278 1.730645 -1.299009 -0.532590 0.497750 0.090690 -0.490240 
0.302020 16.864460 -4.110480 3.441048 17.732995 7.339121 -15.205437 10.053409 4.978765 19.214000 -8.137265 -40.692343 -20.020433 16.330990 38.408788 -0.346112 9.976120 1.016853 0.571790 -0.127510 0.654580 18.805580 -7.919124 4.860216 -28.594202 5.347837 -44.116233 32.111146 -23.405036 41.448756 -1.514159 -9.823282 1.071782 0.120180 0.279320 0.221990 -4.281002 -1.208249 -9.892205 15.422998 -5.367499 35.690254 -10.523821 1.309752 0.911624 2.121340 -2.651275 -6.447317 -9.940706 -3.446438 44.817977 -3.069190 -6.883880 -15.024740 -29.123393 -6.813706 -0.698673 -22.581780 6.195085 -9.180872 -68.162750 -37.165588 17.498600 -3.588497 2.973712 1.085800 0.069030 -0.048360 0.114500 23.840058 8.040941 4.605113 46.420347 -7.927185 -16.577830 39.982116 32.329927 5.175027 1.739362 -1.291291 -0.532160 0.486860 0.089000 -0.505310 
0.296070 16.859240 -4.099140 3.277356 18.239182 7.544470 -15.157122 9.840811 5.046852 20.701673 -7.723006 -40.441637 -22.040933 16.822908 36.953208 -0.354096 10.104976 0.965244 0.582750 -0.121880 0.675950 18.869498 -7.978760 4.828323 -29.199041 5.104493 -43.368062 33.526236 -23.618486 40.167988 -1.514742 -9.806816 1.067169 0.141100 0.282250 0.227550 -4.437790 -0.790696 -9.926194 16.293686 -5.317131 34.626923 -11.945717 1.628716 1.288914 2.472217 -1.274282 -6.097302 -7.139944 -4.478212 45.184656 -3.406670 -6.565800 -14.570350 -29.863538 -7.314073 -0.888804 -20.830337 5.414236 -8.636951 -66.069293 -36.653530 16.745192 -3.599049 2.970438 1.085230 0.090040 -0.058010 0.107540 23.819599 7.278562 4.313475 47.048930 -7.621753 -16.185122 39.511395 30.452333 4.454108 1.733309 -1.288100 -0.546330 0.487320 0.091890 -0.525420 
